# This file uses centimeters as units for non-parametric coordinates.

g default
v 0.491293 -0.740248 -0.654454
v -0.587284 -1.049587 -0.890790
v -1.016797 -0.866025 -0.000000
v -0.550792 -0.802886 0.632543
v 0.619081 -1.005600 0.886347
v 1.362978 -1.159703 0.086595
v 1.096091 -0.605979 -1.542893
v -0.880572 -0.500000 -1.273058
v -1.500830 -0.443657 0.163650
v -0.912645 -0.435586 1.102232
v 0.616586 -0.346922 1.138265
v 1.761144 -0.500000 0.000000
v 1.016798 0.000000 -1.470000
v -1.016797 0.000000 -1.470000
v -2.209427 0.074444 0.083641
v -1.080273 0.016000 1.151162
v 1.016797 0.000000 1.470000
v 1.829259 0.119830 0.182776
v 0.880572 0.500000 -1.273057
v -1.038342 0.605979 -1.542893
v -1.761144 0.500000 -0.000000
v -0.880572 0.500000 1.273057
v 1.096091 0.605979 1.542893
v 2.163308 0.605979 0.000000
v 0.422354 0.606767 -0.874126
v -0.594443 0.606767 -0.874127
v -1.203442 1.049587 -0.000000
v -0.508399 0.866025 0.735000
v 0.645032 1.049587 0.890790
v 1.016797 0.866025 0.000000
v 0.004023 -1.172455 -0.193625
v -0.086045 0.740742 -0.139127
vt 0.000000 0.166667
vt 0.166667 0.166667
vt 0.333333 0.166667
vt 0.500000 0.166667
vt 0.666667 0.166667
vt 0.833333 0.166667
vt 1.000000 0.166667
vt 0.000000 0.333333
vt 0.166667 0.333333
vt 0.333333 0.333333
vt 0.500000 0.333333
vt 0.666667 0.333333
vt 0.833333 0.333333
vt 1.000000 0.333333
vt 0.000000 0.500000
vt 0.166667 0.500000
vt 0.333333 0.500000
vt 0.500000 0.500000
vt 0.666667 0.500000
vt 0.833333 0.500000
vt 1.000000 0.500000
vt 0.000000 0.666667
vt 0.166667 0.666667
vt 0.333333 0.666667
vt 0.500000 0.666667
vt 0.666667 0.666667
vt 0.833333 0.666667
vt 1.000000 0.666667
vt 0.000000 0.833333
vt 0.166667 0.833333
vt 0.333333 0.833333
vt 0.500000 0.833333
vt 0.666667 0.833333
vt 0.833333 0.833333
vt 1.000000 0.833333
vt 0.083333 0.000000
vt 0.250000 0.000000
vt 0.416667 0.000000
vt 0.583333 0.000000
vt 0.750000 0.000000
vt 0.916667 0.000000
vt 0.083333 1.000000
vt 0.250000 1.000000
vt 0.416667 1.000000
vt 0.583333 1.000000
vt 0.750000 1.000000
vt 0.916667 1.000000
vn 0.053814 -0.884748 -0.462952
vn 0.053814 -0.884748 -0.462952
vn 0.053814 -0.884748 -0.462952
vn 0.053814 -0.884748 -0.462952
vn -0.724420 -0.638053 -0.260968
vn -0.724420 -0.638053 -0.260968
vn -0.724420 -0.638053 -0.260968
vn -0.724420 -0.638053 -0.260969
vn -0.479653 -0.801041 0.358143
vn -0.479653 -0.801041 0.358143
vn -0.479653 -0.801041 0.358143
vn -0.479653 -0.801041 0.358143
vn -0.110523 -0.597728 0.794044
vn -0.110523 -0.597728 0.794044
vn -0.110523 -0.597728 0.794044
vn -0.110523 -0.597728 0.794044
vn 0.663297 -0.285797 0.691634
vn 0.663297 -0.285797 0.691634
vn 0.663297 -0.285797 0.691634
vn 0.663297 -0.285797 0.691634
vn 0.346033 -0.869614 -0.352183
vn 0.346033 -0.869614 -0.352183
vn 0.346033 -0.869614 -0.352183
vn 0.346033 -0.869614 -0.352183
vn -0.069889 -0.124631 -0.989739
vn -0.069889 -0.124631 -0.989739
vn -0.069889 -0.124631 -0.989739
vn -0.069889 -0.124631 -0.989739
vn -0.661746 -0.650511 -0.372730
vn -0.661746 -0.650511 -0.372730
vn -0.661746 -0.650511 -0.372730
vn -0.661746 -0.650511 -0.372730
vn -0.636989 -0.558565 0.531273
vn -0.636989 -0.558565 0.531273
vn -0.636989 -0.558565 0.531273
vn -0.636989 -0.558565 0.531273
vn -0.080712 -0.409667 0.908658
vn -0.080712 -0.409667 0.908658
vn -0.080712 -0.409667 0.908658
vn -0.080712 -0.409667 0.908658
vn 0.630069 -0.580018 0.516326
vn 0.630069 -0.580018 0.516326
vn 0.630069 -0.580018 0.516326
vn 0.630069 -0.580018 0.516326
vn 0.900828 0.096507 -0.423316
vn 0.900827 0.096507 -0.423316
vn 0.900827 0.096507 -0.423316
vn 0.900827 0.096507 -0.423316
vn 0.070842 0.121159 -0.990102
vn 0.070842 0.121159 -0.990102
vn 0.070842 0.121158 -0.990102
vn 0.070842 0.121159 -0.990102
vn -0.821659 0.263193 -0.505575
vn -0.821659 0.263193 -0.505575
vn -0.821659 0.263193 -0.505575
vn -0.821659 0.263193 -0.505575
vn -0.670710 0.453128 0.587216
vn -0.670710 0.453128 0.587216
vn -0.670710 0.453128 0.587216
vn -0.670710 0.453128 0.587216
vn -0.138592 -0.139738 0.980442
vn -0.138592 -0.139738 0.980442
vn -0.138592 -0.139738 0.980442
vn -0.138592 -0.139738 0.980442
vn 0.810667 -0.253725 0.527677
vn 0.810667 -0.253725 0.527677
vn 0.810667 -0.253725 0.527677
vn 0.810667 -0.253725 0.527677
vn 0.808912 -0.154119 -0.567370
vn 0.808912 -0.154119 -0.567370
vn 0.808912 -0.154119 -0.567370
vn 0.808912 -0.154119 -0.567370
vn 0.045032 0.994015 -0.099529
vn 0.045032 0.994015 -0.099529
vn 0.045032 0.994015 -0.099529
vn 0.045032 0.994015 -0.099529
vn -0.302619 0.906914 -0.293135
vn -0.302619 0.906914 -0.293135
vn -0.302619 0.906914 -0.293135
vn -0.302619 0.906914 -0.293135
vn -0.482521 0.752975 0.447440
vn -0.482521 0.752975 0.447440
vn -0.482521 0.752975 0.447440
vn -0.482521 0.752975 0.447440
vn -0.151692 0.812549 0.562809
vn -0.151692 0.812549 0.562809
vn -0.151692 0.812549 0.562809
vn -0.151692 0.812549 0.562809
vn 0.351511 0.925957 0.138000
vn 0.351511 0.925957 0.138000
vn 0.351511 0.925957 0.138000
vn 0.351511 0.925957 0.138000
vn 0.144879 0.946700 -0.287695
vn 0.144879 0.946700 -0.287695
vn 0.144879 0.946700 -0.287695
vn 0.144879 0.946700 -0.287695
vn 0.334806 -0.837635 -0.431594
vn 0.334806 -0.837635 -0.431594
vn 0.334806 -0.837635 -0.431594
vn -0.275619 -0.959085 0.064740
vn -0.275618 -0.959085 0.064740
vn -0.275619 -0.959085 0.064740
vn -0.231096 -0.936504 0.263732
vn -0.231096 -0.936504 0.263732
vn -0.231096 -0.936504 0.263732
vn -0.221073 -0.936947 0.270662
vn -0.221073 -0.936947 0.270662
vn -0.221073 -0.936947 0.270662
vn -0.025101 -0.985707 0.166587
vn -0.025101 -0.985707 0.166587
vn -0.025101 -0.985707 0.166587
vn 0.131281 -0.788566 -0.600774
vn 0.131281 -0.788565 -0.600774
vn 0.131281 -0.788566 -0.600774
vn 0.000000 0.983790 -0.179323
vn 0.000000 0.983790 -0.179324
vn 0.000000 0.983790 -0.179324
vn 0.215692 0.923399 -0.317509
vn 0.215692 0.923399 -0.317509
vn 0.215692 0.923399 -0.317509
vn 0.265234 0.964132 -0.010030
vn 0.265234 0.964132 -0.010030
vn 0.265234 0.964132 -0.010030
vn -0.127457 0.971306 -0.200796
vn -0.127457 0.971306 -0.200796
vn -0.127457 0.971306 -0.200796
vn -0.080647 0.969044 -0.233345
vn -0.080647 0.969044 -0.233345
vn -0.080647 0.969044 -0.233345
vn -0.080770 0.969228 -0.232538
vn -0.080770 0.969228 -0.232538
vn -0.080770 0.969228 -0.232538
s off
g pSphere2
f 1/1/1 2/2/2 8/9/3 7/8/4
f 2/2/5 3/3/6 9/10/7 8/9/8
f 3/3/9 4/4/10 10/11/11 9/10/12
f 4/4/13 5/5/14 11/12/15 10/11/16
f 5/5/17 6/6/18 12/13/19 11/12/20
f 6/6/21 1/7/22 7/14/23 12/13/24
f 7/8/25 8/9/26 14/16/27 13/15/28
f 8/9/29 9/10/30 15/17/31 14/16/32
f 9/10/33 10/11/34 16/18/35 15/17/36
f 10/11/37 11/12/38 17/19/39 16/18/40
f 11/12/41 12/13/42 18/20/43 17/19/44
f 12/13/45 7/14/46 13/21/47 18/20/48
f 13/15/49 14/16/50 20/23/51 19/22/52
f 14/16/53 15/17/54 21/24/55 20/23/56
f 15/17/57 16/18/58 22/25/59 21/24/60
f 16/18/61 17/19/62 23/26/63 22/25/64
f 17/19/65 18/20/66 24/27/67 23/26/68
f 18/20/69 13/21/70 19/28/71 24/27/72
f 19/22/73 20/23/74 26/30/75 25/29/76
f 20/23/77 21/24/78 27/31/79 26/30/80
f 21/24/81 22/25/82 28/32/83 27/31/84
f 22/25/85 23/26/86 29/33/87 28/32/88
f 23/26/89 24/27/90 30/34/91 29/33/92
f 24/27/93 19/28/94 25/35/95 30/34/96
f 2/2/97 1/1/98 31/36/99
f 3/3/100 2/2/101 31/37/102
f 4/4/103 3/3/104 31/38/105
f 5/5/106 4/4/107 31/39/108
f 6/6/109 5/5/110 31/40/111
f 1/7/112 6/6/113 31/41/114
f 25/29/115 26/30/116 32/42/117
f 26/30/118 27/31/119 32/43/120
f 27/31/121 28/32/122 32/44/123
f 28/32/124 29/33/125 32/45/126
f 29/33/127 30/34/128 32/46/129
f 30/34/130 25/35/131 32/47/132
