# This file uses centimeters as units for non-parametric coordinates.

g default
v 1.945324 -0.000000 -2.475243
v 1.945324 0.707107 -1.768137
v 1.945324 0.000000 -1.061030
v 1.945324 -0.707107 -1.768137
v 2.652431 -0.000000 -1.768137
v -1.827518 -0.707107 -1.768137
v -1.827518 -0.000000 -2.475243
v -1.827518 0.000000 -1.061030
v -1.827518 0.707107 -1.768137
v 1.538002 0.226305 -2.548867
v 1.538002 0.780731 -1.994441
v -1.420196 0.226305 -2.548867
v -1.420196 0.780731 -1.994441
v 1.945324 -0.000000 1.027195
v 1.945324 0.707107 1.734302
v 1.945324 0.000000 2.441409
v 1.945324 -0.707107 1.734302
v 2.652431 -0.000000 1.734302
v -1.827518 -0.707107 1.734302
v -1.827518 -0.000000 1.027195
v -1.827518 0.000000 2.441409
v -1.827518 0.707107 1.734302
v 1.705231 0.814565 1.931757
v 1.705231 0.197455 2.548867
v -1.587425 0.814565 1.931757
v -1.587425 0.197455 2.548867
v -1.847285 -1.122977 1.117733
v 1.463055 -1.122977 1.117733
v -1.847285 1.122977 0.536651
v 0.317135 1.122977 1.117733
v -1.847285 1.122977 -0.547139
v 0.317135 1.122977 -1.128221
v -1.847285 -1.122977 -1.128221
v 1.463055 -1.122977 -1.128221
v 1.463055 0.000000 1.117733
v -1.847285 0.000000 1.117733
v -1.847285 0.000000 -1.128221
v 1.463055 0.000000 -1.128221
v 0.317135 1.122977 -0.379569
v -1.847285 1.122977 -0.185876
v -1.847285 0.000000 -0.379569
v -1.847285 -1.122977 -0.379569
v 1.463055 -1.122977 -0.379569
v 1.463055 0.000000 -0.379569
v 0.317135 1.122977 0.369082
v -1.847285 1.122977 0.175388
v -1.847285 0.000000 0.369082
v -1.847285 -1.122977 0.369082
v 1.463055 -1.122977 0.369082
v 1.463055 0.000000 0.369082
v 0.379789 1.276425 0.369082
v -1.847285 1.302007 0.175388
v 0.379789 1.276425 -0.379569
v -1.847285 1.302007 -0.185876
v 1.642086 -1.122977 0.369082
v 1.615224 0.063934 0.369082
v 1.642086 -1.122977 -0.379569
v 1.615224 0.063934 -0.379569
v -1.683972 0.140030 -0.635730
v -1.683972 -0.587994 -0.635731
v -1.683972 -0.952005 -0.005244
v -1.683972 -0.587994 0.625242
v -1.683972 0.140029 0.625243
v -1.683972 0.504041 -0.005244
v -2.652431 0.140030 -0.635730
v -2.652431 -0.587994 -0.635731
v -2.652431 -0.952005 -0.005244
v -2.652431 -0.587994 0.625242
v -2.652431 0.140029 0.625243
v -2.652431 0.504041 -0.005244
v -1.683972 -0.223982 -0.005244
v -2.652431 -0.223982 -0.005244
v -1.774700 0.211387 1.512446
v -1.774700 -0.063612 1.512446
v -1.774700 -0.201112 1.750603
v -1.774700 -0.063612 1.988760
v -1.774700 0.211387 1.988760
v -1.774700 0.348887 1.750603
v -2.140521 0.211387 1.512446
v -2.140521 -0.063612 1.512446
v -2.140521 -0.201112 1.750603
v -2.140521 -0.063612 1.988760
v -2.140521 0.211387 1.988760
v -2.140521 0.348887 1.750603
v -1.774700 0.073887 1.750603
v -2.140521 0.073887 1.750603
v -1.786555 0.202476 -1.987141
v -1.786555 -0.054701 -1.987141
v -1.786555 -0.183289 -1.764420
v -1.786555 -0.054701 -1.541698
v -1.786555 0.202476 -1.541698
v -1.786555 0.331064 -1.764420
v -2.128667 0.202476 -1.987141
v -2.128667 -0.054701 -1.987141
v -2.128667 -0.183289 -1.764420
v -2.128667 -0.054701 -1.541698
v -2.128667 0.202476 -1.541698
v -2.128667 0.331064 -1.764420
v -1.786555 0.073887 -1.764420
v -2.128667 0.073887 -1.764420
vt 0.500000 0.000000
vt 0.250000 0.250000
vt 0.500000 0.500000
vt 0.750000 0.250000
vt 0.250000 0.500000
vt 0.375000 0.500000
vt 0.500000 0.500000
vt 0.625000 0.500000
vt 0.750000 0.500000
vt 0.500000 1.000000
vt 0.500000 0.000000
vt 0.750000 0.250000
vt 0.500000 0.500000
vt 0.250000 0.250000
vt 0.250000 0.250000
vt 0.500000 0.000000
vt 0.500000 0.000000
vt 0.250000 0.250000
vt 0.500000 0.000000
vt 0.750000 0.250000
vt 0.500000 0.500000
vt 0.250000 0.250000
vt 0.250000 0.500000
vt 0.375000 0.500000
vt 0.500000 1.000000
vt 0.500000 0.500000
vt 0.625000 0.500000
vt 0.750000 0.500000
vt 0.500000 0.000000
vt 0.750000 0.250000
vt 0.500000 0.500000
vt 0.500000 0.500000
vt 0.250000 0.250000
vt 0.250000 0.250000
vt 0.500000 0.500000
vt 0.250000 0.250000
vt 0.375000 0.000000
vt 0.625000 0.000000
vt 0.625000 0.125000
vt 0.375000 0.125000
vt 0.375000 0.250000
vt 0.625000 0.250000
vt 0.625000 0.333333
vt 0.375000 0.333333
vt 0.375000 0.625000
vt 0.625000 0.625000
vt 0.625000 0.750000
vt 0.375000 0.750000
vt 0.375000 0.916667
vt 0.625000 0.916667
vt 0.625000 1.000000
vt 0.375000 1.000000
vt 0.708333 0.000000
vt 0.708333 0.125000
vt 0.291667 0.000000
vt 0.291667 0.125000
vt 0.291667 0.250000
vt 0.375000 0.500000
vt 0.625000 0.500000
vt 0.708333 0.250000
vt 0.375000 0.416667
vt 0.625000 0.416667
vt 0.125000 0.125000
vt 0.208333 0.125000
vt 0.208333 0.250000
vt 0.125000 0.250000
vt 0.125000 0.000000
vt 0.208333 0.000000
vt 0.625000 0.833333
vt 0.375000 0.833333
vt 0.791667 0.125000
vt 0.791667 0.000000
vt 0.875000 0.000000
vt 0.875000 0.125000
vt 0.791667 0.250000
vt 0.875000 0.250000
vt 0.375000 0.333333
vt 0.625000 0.333333
vt 0.625000 0.416667
vt 0.375000 0.416667
vt 0.708333 0.125000
vt 0.708333 0.000000
vt 0.791667 0.000000
vt 0.791667 0.125000
vt 0.708333 0.250000
vt 0.791667 0.250000
vt 0.375000 0.312500
vt 0.416667 0.312500
vt 0.416667 0.688440
vt 0.375000 0.688440
vt 0.458333 0.312500
vt 0.458333 0.688440
vt 0.500000 0.312500
vt 0.500000 0.688440
vt 0.541667 0.312500
vt 0.541667 0.688440
vt 0.583333 0.312500
vt 0.583333 0.688440
vt 0.625000 0.312500
vt 0.625000 0.688440
vt 0.421875 0.020934
vt 0.578125 0.020934
vt 0.500000 0.150000
vt 0.343750 0.156250
vt 0.421875 0.291566
vt 0.578125 0.291566
vt 0.656250 0.156250
vt 0.578125 0.979066
vt 0.421875 0.979066
vt 0.500000 0.837500
vt 0.343750 0.843750
vt 0.421875 0.708434
vt 0.578125 0.708434
vt 0.656250 0.843750
vt 0.375000 0.312500
vt 0.416667 0.312500
vt 0.416667 0.688440
vt 0.375000 0.688440
vt 0.458333 0.312500
vt 0.458333 0.688440
vt 0.500000 0.312500
vt 0.500000 0.688440
vt 0.541667 0.312500
vt 0.541667 0.688440
vt 0.583333 0.312500
vt 0.583333 0.688440
vt 0.625000 0.312500
vt 0.625000 0.688440
vt 0.421875 0.020934
vt 0.578125 0.020934
vt 0.500000 0.150000
vt 0.343750 0.156250
vt 0.421875 0.291566
vt 0.578125 0.291566
vt 0.656250 0.156250
vt 0.578125 0.979066
vt 0.421875 0.979066
vt 0.500000 0.837500
vt 0.343750 0.843750
vt 0.421875 0.708434
vt 0.578125 0.708434
vt 0.656250 0.843750
vt 0.375000 0.312500
vt 0.416667 0.312500
vt 0.416667 0.688440
vt 0.375000 0.688440
vt 0.458333 0.312500
vt 0.458333 0.688440
vt 0.500000 0.312500
vt 0.500000 0.688440
vt 0.541667 0.312500
vt 0.541667 0.688440
vt 0.583333 0.312500
vt 0.583333 0.688440
vt 0.625000 0.312500
vt 0.625000 0.688440
vt 0.421875 0.020934
vt 0.578125 0.020934
vt 0.500000 0.150000
vt 0.343750 0.156250
vt 0.421875 0.291566
vt 0.578125 0.291566
vt 0.656250 0.156250
vt 0.578125 0.979066
vt 0.421875 0.979066
vt 0.500000 0.837500
vt 0.343750 0.843750
vt 0.421875 0.708434
vt 0.578125 0.708434
vt 0.656250 0.843750
vn -1.000000 0.000000 0.000000
vn -1.000000 0.000000 0.000000
vn -1.000000 0.000000 0.000000
vn -1.000000 0.000000 0.000000
vn 0.577350 0.577350 -0.577350
vn 0.577350 0.577350 -0.577350
vn 0.577350 0.577350 -0.577350
vn 0.577350 0.577350 0.577350
vn 0.577350 0.577350 0.577350
vn 0.577350 0.577350 0.577350
vn 0.577350 -0.577350 0.577350
vn 0.577350 -0.577350 0.577350
vn 0.577350 -0.577350 0.577350
vn 0.577350 -0.577350 -0.577350
vn 0.577350 -0.577350 -0.577350
vn 0.577350 -0.577350 -0.577350
vn 0.000000 -0.707107 -0.707107
vn 0.000000 -0.707107 -0.707107
vn 0.000000 -0.707107 -0.707107
vn 0.000000 -0.707107 -0.707107
vn 0.000000 -0.707107 0.707107
vn 0.000000 -0.707107 0.707107
vn 0.000000 -0.707107 0.707107
vn 0.000000 -0.707107 0.707107
vn -0.000000 0.707107 0.707107
vn -0.000000 0.707107 0.707107
vn -0.000000 0.707107 0.707107
vn -0.000000 0.707107 0.707107
vn 0.000000 0.707107 -0.707107
vn 0.000000 0.707107 -0.707107
vn 0.000000 0.707107 -0.707107
vn 0.000000 0.707107 -0.707107
vn 0.461822 0.627184 -0.627184
vn 0.461822 0.627184 -0.627184
vn 0.461822 0.627184 -0.627184
vn 0.461822 0.627184 -0.627184
vn 0.000000 -0.309371 -0.950942
vn 0.000000 -0.309371 -0.950942
vn 0.000000 -0.309371 -0.950942
vn 0.000000 -0.309371 -0.950942
vn -0.461822 0.627184 -0.627185
vn -0.461822 0.627184 -0.627185
vn -0.461822 0.627184 -0.627185
vn -0.461822 0.627184 -0.627185
vn 0.000000 0.950942 0.309370
vn 0.000000 0.950942 0.309370
vn 0.000000 0.950942 0.309370
vn 0.000000 0.950942 0.309370
vn -1.000000 0.000000 0.000000
vn -1.000000 0.000000 0.000000
vn -1.000000 0.000000 0.000000
vn -1.000000 0.000000 0.000000
vn 0.577350 0.577350 -0.577350
vn 0.577350 0.577350 -0.577350
vn 0.577350 0.577350 -0.577350
vn 0.577350 0.577350 0.577350
vn 0.577350 0.577350 0.577350
vn 0.577350 0.577350 0.577350
vn 0.577350 -0.577350 0.577350
vn 0.577350 -0.577350 0.577350
vn 0.577350 -0.577350 0.577350
vn 0.577350 -0.577350 -0.577350
vn 0.577350 -0.577350 -0.577350
vn 0.577350 -0.577350 -0.577350
vn 0.000000 -0.707107 -0.707107
vn 0.000000 -0.707107 -0.707107
vn 0.000000 -0.707107 -0.707107
vn 0.000000 -0.707107 -0.707107
vn 0.000000 -0.707107 0.707107
vn 0.000000 -0.707107 0.707107
vn 0.000000 -0.707107 0.707107
vn 0.000000 -0.707107 0.707107
vn 0.000000 0.707107 0.707107
vn 0.000000 0.707107 0.707107
vn 0.000000 0.707107 0.707107
vn 0.000000 0.707107 0.707107
vn 0.000000 0.707107 -0.707107
vn 0.000000 0.707107 -0.707107
vn 0.000000 0.707107 -0.707107
vn 0.000000 0.707107 -0.707107
vn 0.668148 0.526108 0.526107
vn 0.668148 0.526108 0.526107
vn 0.668148 0.526108 0.526107
vn 0.668148 0.526108 0.526107
vn 0.000000 0.878352 -0.478015
vn 0.000000 0.878352 -0.478015
vn 0.000000 0.878352 -0.478015
vn 0.000000 0.878352 -0.478015
vn -0.668148 0.526108 0.526108
vn -0.668148 0.526108 0.526108
vn -0.668148 0.526108 0.526108
vn -0.668148 0.526108 0.526108
vn 0.000000 -0.478014 0.878352
vn 0.000000 -0.478014 0.878352
vn 0.000000 -0.478014 0.878352
vn 0.000000 -0.478014 0.878352
vn 0.000000 0.000000 1.000000
vn 0.000000 0.000000 1.000000
vn -0.030695 0.059161 0.997777
vn -0.047782 0.092095 0.994603
vn 0.000000 1.000000 0.000000
vn 0.000000 1.000000 0.000000
vn 0.000000 1.000000 0.000000
vn 0.000000 1.000000 0.000000
vn -0.047782 0.092095 -0.994603
vn -0.030695 0.059161 -0.997777
vn 0.000000 0.000000 -1.000000
vn 0.000000 0.000000 -1.000000
vn 0.000000 -1.000000 0.000000
vn 0.000000 -1.000000 0.000000
vn 0.000000 -1.000000 0.000000
vn 0.000000 -1.000000 0.000000
vn 1.000000 0.000000 0.000000
vn 1.000000 0.000000 0.000000
vn 0.890758 0.454478 0.000000
vn 0.890758 0.454478 0.000000
vn -1.000000 0.000000 0.000000
vn -1.000000 0.000000 0.000000
vn -1.000000 0.000000 0.000000
vn -1.000000 0.000000 0.000000
vn -0.103427 0.199345 0.974456
vn -0.103427 0.199345 0.974456
vn -1.000000 0.000000 0.000000
vn -1.000000 0.000000 0.000000
vn -0.103427 0.199345 -0.974456
vn -0.103427 0.199345 -0.974456
vn 0.699921 0.714221 0.000000
vn 0.699921 0.714221 0.000000
vn 0.000000 1.000000 0.000000
vn 0.000000 1.000000 0.000000
vn 0.000000 1.000000 0.000000
vn 0.000000 1.000000 0.000000
vn -1.000000 0.000000 0.000000
vn -1.000000 0.000000 0.000000
vn -1.000000 0.000000 0.000000
vn -1.000000 0.000000 0.000000
vn -1.000000 0.000000 0.000000
vn -1.000000 0.000000 0.000000
vn 0.000000 -1.000000 0.000000
vn 0.000000 -1.000000 0.000000
vn 0.000000 -1.000000 0.000000
vn 0.000000 -1.000000 0.000000
vn 0.890758 0.454479 0.000000
vn 1.000000 0.000000 0.000000
vn 1.000000 0.000000 0.000000
vn 0.890758 0.454479 0.000000
vn 0.699921 0.714221 0.000000
vn 0.699921 0.714221 0.000000
vn 0.011486 0.999934 0.000000
vn 0.011486 0.999934 0.000000
vn 0.011486 0.999934 0.000000
vn 0.011486 0.999934 0.000000
vn 0.885001 0.465589 0.000000
vn 0.999744 0.022626 0.000000
vn 0.999744 0.022626 0.000000
vn 0.885001 0.465589 0.000000
vn 0.700449 0.713703 0.000000
vn 0.700449 0.713703 0.000000
vn -0.087764 0.016539 0.996004
vn -0.051823 0.009766 0.998609
vn -0.052085 0.009815 0.998594
vn -0.087764 0.016539 0.996004
vn -0.051823 0.009766 -0.998609
vn -0.087764 0.016539 -0.996004
vn -0.087764 0.016539 -0.996004
vn -0.052085 0.009815 -0.998594
vn -1.000000 0.000000 0.000000
vn -1.000000 0.000000 0.000000
vn -0.000000 0.000000 1.000000
vn 0.000000 0.000000 1.000000
vn 0.000000 0.000000 1.000000
vn -0.000000 0.000000 1.000000
vn 0.000000 -1.000000 0.000000
vn 0.000000 -1.000000 0.000000
vn 0.000000 0.000000 -1.000000
vn -0.000000 0.000000 -1.000000
vn -0.000000 0.000000 -1.000000
vn 0.000000 0.000000 -1.000000
vn 0.000000 0.000000 -1.000000
vn 0.000000 0.000000 -1.000000
vn 0.000000 0.000000 -1.000000
vn 0.000000 0.000000 -1.000000
vn 0.000000 -0.866025 -0.500000
vn 0.000000 -0.866025 -0.500000
vn 0.000000 -0.866025 -0.500000
vn 0.000000 -0.866025 -0.500000
vn 0.000000 -0.866025 0.500000
vn 0.000000 -0.866025 0.500000
vn 0.000000 -0.866025 0.500000
vn 0.000000 -0.866025 0.500000
vn 0.000000 -0.000000 1.000000
vn 0.000000 -0.000000 1.000000
vn 0.000000 -0.000000 1.000000
vn 0.000000 -0.000000 1.000000
vn 0.000000 0.866025 0.500000
vn 0.000000 0.866025 0.500000
vn 0.000000 0.866025 0.500000
vn 0.000000 0.866025 0.500000
vn 0.000000 0.866025 -0.500000
vn 0.000000 0.866025 -0.500000
vn 0.000000 0.866025 -0.500000
vn 0.000000 0.866025 -0.500000
vn 1.000000 0.000000 0.000000
vn 1.000000 0.000000 0.000000
vn 1.000000 0.000000 0.000000
vn 1.000000 0.000000 0.000000
vn 1.000000 0.000000 0.000000
vn 1.000000 -0.000000 0.000000
vn 1.000000 0.000000 0.000000
vn -1.000000 0.000000 0.000000
vn -1.000000 0.000000 0.000000
vn -1.000000 -0.000000 0.000000
vn -1.000000 -0.000000 0.000000
vn -1.000000 -0.000000 0.000000
vn -1.000000 0.000000 0.000000
vn -1.000000 0.000000 0.000000
vn 0.000000 0.000000 -1.000000
vn 0.000000 0.000000 -1.000000
vn 0.000000 0.000000 -1.000000
vn 0.000000 0.000000 -1.000000
vn 0.000000 -0.866025 -0.500000
vn 0.000000 -0.866025 -0.500000
vn 0.000000 -0.866025 -0.500000
vn 0.000000 -0.866025 -0.500000
vn 0.000000 -0.866025 0.500000
vn 0.000000 -0.866025 0.500000
vn 0.000000 -0.866025 0.500000
vn 0.000000 -0.866025 0.500000
vn 0.000000 0.000000 1.000000
vn 0.000000 0.000000 1.000000
vn 0.000000 0.000000 1.000000
vn 0.000000 0.000000 1.000000
vn 0.000000 0.866026 0.500000
vn 0.000000 0.866026 0.500000
vn 0.000000 0.866026 0.500000
vn 0.000000 0.866026 0.500000
vn 0.000000 0.866026 -0.500000
vn 0.000000 0.866026 -0.500000
vn 0.000000 0.866026 -0.500000
vn 0.000000 0.866026 -0.500000
vn 1.000000 0.000000 0.000000
vn 1.000000 0.000000 0.000000
vn 1.000000 0.000000 0.000000
vn 1.000000 0.000000 0.000000
vn 1.000000 0.000000 0.000000
vn 1.000000 0.000000 0.000000
vn 1.000000 0.000000 0.000000
vn -1.000000 0.000000 0.000000
vn -1.000000 0.000000 0.000000
vn -1.000000 0.000000 0.000000
vn -1.000000 0.000000 0.000000
vn -1.000000 0.000000 0.000000
vn -1.000000 0.000000 0.000000
vn -1.000000 0.000000 0.000000
vn 0.000000 0.000000 -1.000000
vn 0.000000 0.000000 -1.000000
vn 0.000000 0.000000 -1.000000
vn 0.000000 0.000000 -1.000000
vn 0.000000 -0.866025 -0.500000
vn 0.000000 -0.866025 -0.500000
vn 0.000000 -0.866025 -0.500000
vn 0.000000 -0.866025 -0.500000
vn 0.000000 -0.866025 0.500000
vn 0.000000 -0.866025 0.500000
vn 0.000000 -0.866025 0.500000
vn 0.000000 -0.866025 0.500000
vn 0.000000 -0.000000 1.000000
vn 0.000000 -0.000000 1.000000
vn 0.000000 -0.000000 1.000000
vn 0.000000 -0.000000 1.000000
vn 0.000000 0.866026 0.500000
vn 0.000000 0.866026 0.500000
vn 0.000000 0.866026 0.500000
vn 0.000000 0.866026 0.500000
vn 0.000000 0.866025 -0.500000
vn 0.000000 0.866025 -0.500000
vn 0.000000 0.866025 -0.500000
vn 0.000000 0.866025 -0.500000
vn 1.000000 0.000000 0.000000
vn 1.000000 0.000000 0.000000
vn 1.000000 0.000000 0.000000
vn 1.000000 0.000000 0.000000
vn 1.000000 0.000000 0.000000
vn 1.000000 0.000000 0.000000
vn 1.000000 0.000000 0.000000
vn -1.000000 0.000000 0.000000
vn -1.000000 0.000000 0.000000
vn -1.000000 0.000000 0.000000
vn -1.000000 0.000000 0.000000
vn -1.000000 0.000000 0.000000
vn -1.000000 0.000000 0.000000
vn -1.000000 0.000000 0.000000
s off
g pPyramid3
f 7/11/1 6/12/2 8/13/3 9/14/4
f 1/5/5 2/6/6 5/10/7
f 2/6/8 3/7/9 5/10/10
f 3/7/11 4/8/12 5/10/13
f 4/8/14 1/9/15 5/10/16
f 1/1/17 4/4/18 6/12/19 7/11/20
f 4/4/21 3/3/22 8/13/23 6/12/24
f 3/3/25 2/2/26 9/14/27 8/13/28
f 11/15/29 10/16/30 12/17/31 13/18/32
f 2/2/33 1/1/34 10/16/35 11/15/36
f 1/1/37 7/11/38 12/17/39 10/16/40
f 7/11/41 9/14/42 13/18/43 12/17/44
f 9/14/45 2/2/46 11/15/47 13/18/48
f 20/19/49 19/20/50 21/21/51 22/22/52
f 14/23/53 15/24/54 18/25/55
f 15/24/56 16/26/57 18/25/58
f 16/26/59 17/27/60 18/25/61
f 17/27/62 14/28/63 18/25/64
f 14/29/65 17/30/66 19/20/67 20/19/68
f 17/30/69 16/31/70 21/21/71 19/20/72
f 24/32/73 23/33/74 25/34/75 26/35/76
f 15/36/77 14/29/78 20/19/79 22/22/80
f 16/31/81 15/36/82 23/33/83 24/32/84
f 15/36/85 22/22/86 25/34/87 23/33/88
f 22/22/89 21/21/90 26/35/91 25/34/92
f 21/21/93 16/31/94 24/32/95 26/35/96
s 1
f 27/37/97 28/38/98 35/39/99 36/40/100
s off
f 29/41/101 30/42/102 45/43/103 46/44/104
s 2
f 37/45/105 38/46/106 34/47/107 33/48/108
s 3
f 48/49/109 49/50/110 28/51/111 27/52/112
s 4
f 28/38/113 49/53/114 50/54/115 35/39/116
s 5
f 48/55/117 27/37/118 36/40/119 47/56/120
s 1
f 36/40/100 35/39/99 30/42/121 29/41/122
s 5
f 47/56/120 36/40/119 29/41/123 46/57/124
s 2
f 31/58/125 32/59/126 38/46/106 37/45/105
s 4
f 35/39/116 50/54/115 45/60/127 30/42/128
s off
f 40/61/129 39/62/130 32/59/131 31/58/132
s 5
f 37/63/133 41/64/134 40/65/135 31/66/136
f 33/67/137 42/68/138 41/64/134 37/63/133
s 3
f 33/48/139 34/47/140 43/69/141 42/70/142
s 7
f 44/71/143 43/72/144 34/73/145 38/74/146
f 39/75/147 44/71/143 38/74/146 32/76/148
s off
f 52/77/149 51/78/150 53/79/151 54/80/152
s 5
f 41/64/134 47/56/120 46/57/124 40/65/135
f 42/68/138 48/55/117 47/56/120 41/64/134
s 3
f 42/70/142 43/69/141 49/50/110 48/49/109
s 8
f 56/81/153 55/82/154 57/83/155 58/84/156
f 51/85/157 56/81/153 58/84/156 53/86/158
s 9
f 46/44/159 45/43/160 51/78/161 52/77/162
s 10
f 39/62/163 40/61/164 54/80/165 53/79/166
s 5
f 40/61/135 46/44/124 52/77/167 54/80/168
s 9
f 50/54/169 49/53/170 55/82/171 56/81/172
s 3
f 49/53/110 43/72/141 57/83/173 55/82/174
s 10
f 43/72/175 44/71/176 58/84/177 57/83/178
s 9
f 45/60/160 50/54/169 56/81/172 51/85/161
s 10
f 44/71/176 39/75/163 53/86/166 58/84/177
s off
f 59/87/179 60/88/180 66/89/181 65/90/182
f 60/88/183 61/91/184 67/92/185 66/89/186
f 61/91/187 62/93/188 68/94/189 67/92/190
f 62/93/191 63/95/192 69/96/193 68/94/194
f 63/95/195 64/97/196 70/98/197 69/96/198
f 64/97/199 59/99/200 65/100/201 70/98/202
s 11
f 60/101/203 59/102/204 71/103/205
f 61/104/206 60/101/203 71/103/205
f 62/105/207 61/104/206 71/103/205
f 63/106/208 62/105/207 71/103/205
f 64/107/209 63/106/208 71/103/205
f 59/102/204 64/107/209 71/103/205
s 12
f 65/108/210 66/109/211 72/110/212
f 66/109/211 67/111/213 72/110/212
f 67/111/213 68/112/214 72/110/212
f 68/112/214 69/113/215 72/110/212
f 69/113/215 70/114/216 72/110/212
f 70/114/216 65/108/210 72/110/212
s off
f 73/115/217 74/116/218 80/117/219 79/118/220
f 74/116/221 75/119/222 81/120/223 80/117/224
f 75/119/225 76/121/226 82/122/227 81/120/228
f 76/121/229 77/123/230 83/124/231 82/122/232
f 77/123/233 78/125/234 84/126/235 83/124/236
f 78/125/237 73/127/238 79/128/239 84/126/240
s 13
f 74/129/241 73/130/242 85/131/243
f 75/132/244 74/129/241 85/131/243
f 76/133/245 75/132/244 85/131/243
f 77/134/246 76/133/245 85/131/243
f 78/135/247 77/134/246 85/131/243
f 73/130/242 78/135/247 85/131/243
s 14
f 79/136/248 80/137/249 86/138/250
f 80/137/249 81/139/251 86/138/250
f 81/139/251 82/140/252 86/138/250
f 82/140/252 83/141/253 86/138/250
f 83/141/253 84/142/254 86/138/250
f 84/142/254 79/136/248 86/138/250
s off
f 87/143/255 88/144/256 94/145/257 93/146/258
f 88/144/259 89/147/260 95/148/261 94/145/262
f 89/147/263 90/149/264 96/150/265 95/148/266
f 90/149/267 91/151/268 97/152/269 96/150/270
f 91/151/271 92/153/272 98/154/273 97/152/274
f 92/153/275 87/155/276 93/156/277 98/154/278
s 15
f 88/157/279 87/158/280 99/159/281
f 89/160/282 88/157/279 99/159/281
f 90/161/283 89/160/282 99/159/281
f 91/162/284 90/161/283 99/159/281
f 92/163/285 91/162/284 99/159/281
f 87/158/280 92/163/285 99/159/281
s 16
f 93/164/286 94/165/287 100/166/288
f 94/165/287 95/167/289 100/166/288
f 95/167/289 96/168/290 100/166/288
f 96/168/290 97/169/291 100/166/288
f 97/169/291 98/170/292 100/166/288
f 98/170/292 93/164/286 100/166/288
