# This file uses centimeters as units for non-parametric coordinates.

g default
v -1.988075 -1.612602 0.756408
v -0.537098 -1.612602 0.362430
v -1.988075 -0.161624 0.756408
v -0.537098 -0.161624 0.362430
v -1.988075 -0.161624 -0.694570
v -0.537098 -0.161624 -0.300592
v -1.988075 -1.612602 -0.694570
v -0.537098 -1.612602 -0.300592
v -0.861417 -1.612602 2.165792
v 0.198178 -1.612602 1.099108
v 0.198178 -0.161624 1.099108
v -0.861417 -0.161624 2.165792
v -0.861417 -0.161624 -2.103953
v 0.198178 -0.161624 -1.037269
v 0.198178 -1.612602 -1.037269
v -0.861417 -1.612602 -2.103953
v 0.458951 -1.470324 2.579046
v 0.767880 -1.470324 1.410538
v 0.767880 -0.303902 1.410538
v 0.458951 -0.303902 2.579046
v 0.479061 -0.379828 -2.396794
v 0.747772 -0.379828 -1.380406
v 0.747772 -1.394398 -1.380406
v 0.479061 -1.394398 -2.396794
v -1.787270 0.017073 -0.787834
v -0.602834 0.017073 -0.466229
v -0.002627 0.017073 -1.067580
v -0.867576 0.017073 -1.938316
v -1.816898 0.008642 0.835912
v -0.593135 0.008642 0.503628
v -0.866668 0.008642 2.024593
v 0.027000 0.008642 1.124947
v 0.525329 -0.554523 -2.221785
v 0.701505 -0.554523 -1.555414
v 0.701505 -1.219703 -1.555414
v 0.525329 -1.219703 -2.221785
v 1.336900 -0.554523 -2.221785
v 1.513076 -0.554523 -1.555414
v 1.513076 -1.219703 -1.555414
v 1.336900 -1.219703 -2.221785
v 0.484934 -1.372223 2.480769
v 0.741898 -1.372223 1.508815
v 0.741898 -0.402003 1.508815
v 0.484934 -0.402003 2.480769
v 1.089136 -1.372223 2.640507
v 1.346100 -1.372223 1.668553
v 1.346100 -0.402003 1.668553
v 1.089136 -0.402003 2.640507
v -1.311415 1.412584 0.678222
v -0.395991 0.497160 0.326703
v -0.395991 0.497160 -0.264864
v -1.311415 1.412584 -0.616383
v 0.194035 1.612602 0.536288
v 0.194035 0.601866 0.261846
v 0.194035 0.601866 -0.200008
v 0.194035 1.612602 -0.474449
v 1.483773 0.797420 0.324191
v 1.190502 0.289459 0.164929
v 1.190502 0.289459 -0.103091
v 1.483773 0.797420 -0.262352
v 1.988075 -0.237996 0.208135
v 1.681129 -0.415213 0.111898
v 1.681129 -0.415213 -0.050059
v 1.988075 -0.237996 -0.146297
v 0.580642 1.607719 0.398558
v 0.580642 1.607719 -0.336719
v 1.518884 1.014701 0.244265
v 1.518884 1.014701 -0.182426
v 1.885747 0.261469 0.159838
v 1.885747 0.261469 -0.097999
vt 0.375000 0.000000
vt 0.625000 0.000000
vt 0.375000 0.250000
vt 0.625000 0.250000
vt 0.375000 0.500000
vt 0.625000 0.500000
vt 0.375000 0.750000
vt 0.625000 0.750000
vt 0.375000 1.000000
vt 0.625000 1.000000
vt 0.875000 0.000000
vt 0.875000 0.250000
vt 0.125000 0.000000
vt 0.125000 0.250000
vt 0.375000 0.000000
vt 0.625000 0.000000
vt 0.625000 0.250000
vt 0.375000 0.250000
vt 0.375000 0.500000
vt 0.625000 0.500000
vt 0.625000 0.750000
vt 0.375000 0.750000
vt 0.375000 0.000000
vt 0.625000 0.000000
vt 0.625000 0.250000
vt 0.375000 0.250000
vt 0.375000 0.500000
vt 0.625000 0.500000
vt 0.625000 0.750000
vt 0.375000 0.750000
vt 0.375000 0.500000
vt 0.625000 0.500000
vt 0.625000 0.500000
vt 0.375000 0.500000
vt 0.625000 0.250000
vt 0.375000 0.250000
vt 0.375000 0.250000
vt 0.625000 0.250000
vt 0.375000 0.500000
vt 0.625000 0.500000
vt 0.625000 0.750000
vt 0.375000 0.750000
vt 0.375000 0.500000
vt 0.625000 0.500000
vt 0.625000 0.750000
vt 0.375000 0.750000
vt 0.375000 0.000000
vt 0.625000 0.000000
vt 0.625000 0.250000
vt 0.375000 0.250000
vt 0.375000 0.000000
vt 0.625000 0.000000
vt 0.625000 0.250000
vt 0.375000 0.250000
vt 0.375000 0.250000
vt 0.625000 0.250000
vt 0.625000 0.500000
vt 0.375000 0.500000
vt 0.375000 0.250000
vt 0.625000 0.250000
vt 0.625000 0.500000
vt 0.375000 0.500000
vt 0.375000 0.250000
vt 0.625000 0.250000
vt 0.625000 0.500000
vt 0.375000 0.500000
vt 0.375000 0.250000
vt 0.625000 0.250000
vt 0.625000 0.500000
vt 0.375000 0.500000
vt 0.375000 0.500000
vt 0.375000 0.250000
vt 0.375000 0.250000
vt 0.375000 0.500000
vt 0.375000 0.250000
vt 0.375000 0.500000
vn 0.966783 0.000000 0.255597
vn 0.966783 0.000000 0.255597
vn 0.966783 0.000000 0.255597
vn 0.966783 0.000000 0.255597
vn 0.500001 -0.866025 0.000000
vn 0.500001 -0.866025 0.000000
vn 0.500001 -0.866025 0.000000
vn 0.500001 -0.866025 0.000000
vn 0.966783 0.000000 -0.255599
vn 0.966783 0.000000 -0.255599
vn 0.966783 0.000000 -0.255599
vn 0.966783 0.000000 -0.255599
vn 0.000000 -1.000000 0.000000
vn 0.000000 -1.000000 0.000000
vn 0.000000 -1.000000 -0.000000
vn 0.000000 -1.000000 -0.000000
vn 0.885285 0.000000 -0.465049
vn 0.885285 0.000000 0.465049
vn 0.885285 0.000000 0.465049
vn 0.885285 0.000000 -0.465049
vn -0.930425 0.000000 -0.366482
vn -0.930425 0.000000 0.366482
vn -0.930425 0.000000 0.366482
vn -0.930425 0.000000 -0.366482
vn 0.052317 -0.998117 0.032032
vn 0.039704 -0.998916 0.024309
vn 0.638979 0.000000 -0.769225
vn 0.638979 0.000000 -0.769225
vn 0.000000 1.000000 0.000000
vn 0.000000 1.000000 0.000000
vn 0.000000 1.000000 0.000000
vn 0.000000 1.000000 0.000000
vn -0.617367 0.000000 0.786675
vn -0.617367 0.000000 0.786675
vn 0.000000 1.000000 0.000000
vn 0.000000 1.000000 0.000000
vn 0.000000 1.000000 0.000000
vn 0.000000 1.000000 0.000000
vn 0.658688 0.000000 0.752416
vn 0.658688 0.000000 0.752416
vn 0.055132 -0.997860 -0.035156
vn 0.075798 -0.995951 -0.048334
vn -0.604682 0.000000 -0.796467
vn -0.604682 0.000000 -0.796467
vn 0.120703 -0.989934 0.073902
vn 0.120703 -0.989934 0.073902
vn 0.479663 0.000000 -0.877453
vn 0.479663 0.000000 -0.877453
vn 0.120703 0.989934 0.073902
vn 0.120703 0.989934 0.073902
vn 0.120703 0.989934 0.073902
vn 0.120703 0.989934 0.073902
vn -0.298696 0.000000 0.954348
vn -0.298696 0.000000 0.954348
vn 0.185450 0.975512 -0.118255
vn 0.185450 0.975512 -0.118255
vn 0.185450 0.975512 -0.118255
vn 0.185450 0.975512 -0.118255
vn 0.529600 0.000000 0.848247
vn 0.529600 0.000000 0.848247
vn 0.185450 -0.975512 -0.118255
vn 0.185450 -0.975512 -0.118255
vn -0.213427 0.000000 -0.976959
vn -0.213427 0.000000 -0.976959
vn -0.204804 0.623804 0.754270
vn -0.204804 0.623805 0.754270
vn -0.204804 0.623805 0.754270
vn -0.204804 0.623805 0.754270
vn 0.522132 0.675125 0.521138
vn 0.522132 0.675125 0.521138
vn 0.522132 0.675125 0.521138
vn 0.522132 0.675125 0.521138
vn 0.587301 0.561004 -0.583397
vn 0.587301 0.561004 -0.583397
vn 0.587301 0.561004 -0.583397
vn 0.587301 0.561004 -0.583397
vn -0.683876 0.483161 -0.546689
vn -0.683876 0.483161 -0.546689
vn -0.683876 0.483161 -0.546689
vn -0.683876 0.483161 -0.546689
vn -0.213252 0.581117 -0.785383
vn -0.213252 0.581117 -0.785383
vn -0.213252 0.581117 -0.785383
vn -0.213252 0.581117 -0.785383
vn -0.700386 0.442703 0.559887
vn -0.700386 0.442703 0.559887
vn -0.700386 0.442703 0.559887
vn -0.700386 0.442703 0.559887
vn 0.606662 0.518458 0.602630
vn 0.606662 0.518458 0.602630
vn 0.606662 0.518458 0.602630
vn 0.606662 0.518458 0.602630
vn 0.547633 0.633512 -0.546590
vn 0.547633 0.633512 -0.546590
vn 0.547633 0.633512 -0.546590
vn 0.547633 0.633512 -0.546590
vn 0.966783 0.000003 -0.255598
vn 0.966783 0.000003 -0.255598
vn 0.966783 0.000003 -0.255598
vn 0.966783 0.000003 -0.255598
vn 0.966785 0.000000 -0.255590
vn 0.966785 0.000000 -0.255590
vn 0.966785 0.000000 -0.255590
vn 0.966785 0.000000 -0.255590
vn 0.966783 -0.000003 -0.255598
vn 0.966783 -0.000003 -0.255598
vn 0.966783 -0.000003 -0.255598
vn 0.966783 -0.000003 -0.255598
vn 0.966784 0.000000 -0.255596
vn 0.966784 0.000000 -0.255596
vn 0.966784 0.000000 -0.255596
vn 0.966784 0.000000 -0.255596
vn 0.000000 1.000000 0.000000
vn 0.000000 1.000000 0.000000
vn 0.000000 1.000000 0.000000
vn 0.000000 1.000000 0.000000
vn 0.000000 0.000000 1.000000
vn 0.000000 0.000000 1.000000
vn 0.000000 0.000000 1.000000
vn 0.000000 0.000000 1.000000
vn 0.000000 -1.000000 0.000000
vn 0.000000 -1.000000 0.000000
vn 0.000000 -1.000000 0.000000
vn 0.000000 -1.000000 0.000000
vn 0.000000 0.000000 -1.000000
vn 0.000000 0.000000 -1.000000
vn 0.000000 0.000000 -1.000000
vn 0.000000 0.000000 -1.000000
vn 0.966783 -0.000000 0.255597
vn 0.966783 -0.000000 0.255597
vn 0.966783 -0.000000 0.255597
vn 0.966783 -0.000000 0.255597
vn 0.966783 0.000000 0.255597
vn 0.966783 0.000000 0.255597
vn 0.966783 0.000000 0.255597
vn 0.966783 0.000000 0.255597
vn 0.966783 0.000001 0.255597
vn 0.966783 0.000001 0.255597
vn 0.966783 0.000001 0.255597
vn 0.966783 0.000001 0.255597
vn 0.966783 0.000000 0.255598
vn 0.966783 0.000000 0.255598
vn 0.966783 0.000000 0.255598
vn 0.966783 0.000000 0.255598
vn 0.000000 -1.000000 -0.000000
vn 0.000000 -1.000000 -0.000000
vn 0.000000 -1.000000 -0.000000
vn 0.000000 -1.000000 -0.000000
vn 0.255597 0.000000 -0.966784
vn 0.255597 0.000000 -0.966784
vn 0.255597 0.000000 -0.966784
vn 0.255597 0.000000 -0.966784
vn 0.000000 1.000000 -0.000000
vn 0.000000 1.000000 -0.000000
vn 0.000000 1.000000 -0.000000
vn 0.000000 1.000000 -0.000000
vn -0.255597 0.000000 0.966783
vn -0.255597 0.000000 0.966783
vn -0.255597 0.000000 0.966783
vn -0.255597 0.000000 0.966783
vn 0.280969 -0.054015 0.958196
vn 0.280969 -0.054015 0.958196
vn 0.280969 -0.054015 0.958196
vn 0.280969 -0.054015 0.958196
vn 0.977821 -0.209441 0.000000
vn 0.977821 -0.209441 0.000000
vn 0.977821 -0.209441 0.000000
vn 0.977821 -0.209441 0.000000
vn 0.280969 -0.054015 -0.958196
vn 0.280969 -0.054015 -0.958196
vn 0.280969 -0.054015 -0.958196
vn 0.280969 -0.054015 -0.958196
vn -0.918722 0.394905 0.000000
vn -0.918722 0.394905 0.000000
vn -0.918722 0.394905 0.000000
vn -0.918722 0.394905 0.000000
vn 0.130974 -0.249557 0.959462
vn 0.130974 -0.249557 0.959462
vn 0.130974 -0.249557 0.959462
vn 0.130974 -0.249557 0.959462
vn 0.174730 -0.984617 0.000000
vn 0.174730 -0.984617 0.000000
vn 0.174730 -0.984617 0.000000
vn 0.174730 -0.984617 0.000000
vn 0.130974 -0.249557 -0.959462
vn 0.130974 -0.249557 -0.959462
vn 0.130974 -0.249557 -0.959462
vn 0.130974 -0.249557 -0.959462
vn -0.131705 0.991289 0.000000
vn -0.131705 0.991289 0.000000
vn -0.131705 0.991289 0.000000
vn -0.131705 0.991289 0.000000
vn -0.004993 -0.273703 0.961801
vn -0.004993 -0.273703 0.961801
vn -0.066200 -0.249033 0.966230
vn -0.042815 -0.258601 0.965035
vn -0.299157 -0.954204 0.000000
vn -0.299157 -0.954204 0.000000
vn -0.480184 -0.877168 0.000000
vn -0.480184 -0.877168 0.000000
vn -0.004993 -0.273703 -0.961801
vn -0.004993 -0.273703 -0.961801
vn -0.042815 -0.258601 -0.965035
vn -0.066200 -0.249033 -0.966230
vn 0.534279 0.845308 0.000000
vn 0.534279 0.845308 0.000000
vn 0.655126 0.755520 0.000000
vn 0.655126 0.755520 0.000000
vn -0.183365 -0.198400 0.962816
vn -0.183365 -0.198400 0.962816
vn -0.820676 -0.571394 0.000000
vn -0.820676 -0.571394 0.000000
vn -0.183365 -0.198400 -0.962816
vn -0.183365 -0.198400 -0.962816
vn 0.899035 0.437877 0.000000
vn 0.899035 0.437877 0.000000
vn 0.012630 0.999920 0.000000
vn 0.012630 0.999920 0.000000
vn 0.012630 0.999920 0.000000
vn 0.012630 0.999920 0.000000
vn 0.325331 0.279702 0.903287
vn 0.325331 0.279702 0.903287
vn 0.325331 0.279702 0.903287
vn 0.325331 0.279702 0.903287
vn 0.325331 0.279702 -0.903287
vn 0.325331 0.279702 -0.903287
vn 0.325331 0.279702 -0.903287
vn 0.325331 0.279702 -0.903287
vn 0.583289 0.195732 0.788329
vn 0.583289 0.195732 0.788329
vn 0.583289 0.195732 0.788329
vn 0.583289 0.195732 0.788329
vn 0.979651 0.200708 0.000000
vn 0.979651 0.200708 0.000000
vn 0.979651 0.200708 0.000000
vn 0.979651 0.200708 0.000000
vn 0.583289 0.195732 -0.788329
vn 0.583289 0.195732 -0.788329
vn 0.583289 0.195732 -0.788329
vn 0.583289 0.195732 -0.788329
s off
g pCube1
f 45/51/1 46/52/2 47/53/3 48/54/4
f 61/67/5 62/68/6 63/69/7 64/70/8
f 37/43/9 38/44/10 39/45/11 40/46/12
s 1
f 7/7/13 8/8/14 2/10/15 1/9/16
s 2
f 2/2/17 8/11/18 6/12/19 4/4/20
s 3
f 7/13/21 1/1/22 3/3/23 5/14/24
s 1
f 1/1/16 2/2/15 10/16/25 9/15/26
s 2
f 2/2/17 4/4/20 11/17/27 10/16/28
s off
f 30/35/29 29/36/30 31/37/31 32/38/32
s 3
f 3/3/23 1/1/22 9/15/33 12/18/34
s off
f 25/31/35 26/32/36 27/33/37 28/34/38
s 2
f 6/6/19 8/8/18 15/21/39 14/20/40
s 1
f 8/8/14 7/7/13 16/22/41 15/21/42
s 3
f 7/7/21 5/5/24 13/19/43 16/22/44
s 1
f 9/15/26 10/16/25 18/24/45 17/23/46
s 2
f 10/16/28 11/17/27 19/25/47 18/24/48
s off
f 11/17/49 12/18/50 20/26/51 19/25/52
s 3
f 12/18/34 9/15/33 17/23/53 20/26/54
s off
f 13/19/55 14/20/56 22/28/57 21/27/58
s 2
f 14/20/40 15/21/39 23/29/59 22/28/60
s 1
f 15/21/42 16/22/41 24/30/61 23/29/62
s 3
f 16/22/44 13/19/43 21/27/63 24/30/64
s off
f 5/5/65 6/6/66 26/32/67 25/31/68
f 6/6/69 14/20/70 27/33/71 26/32/72
f 14/20/73 13/19/74 28/34/75 27/33/76
f 13/19/77 5/5/78 25/31/79 28/34/80
f 4/4/81 3/3/82 29/36/83 30/35/84
f 3/3/85 12/18/86 31/37/87 29/36/88
f 12/18/89 11/17/90 32/38/91 31/37/92
f 11/17/93 4/4/94 30/35/95 32/38/96
f 21/27/97 22/28/98 34/40/99 33/39/100
f 22/28/101 23/29/102 35/41/103 34/40/104
f 23/29/105 24/30/106 36/42/107 35/41/108
f 24/30/109 21/27/110 33/39/111 36/42/112
f 33/39/113 34/40/114 38/44/115 37/43/116
f 34/40/117 35/41/118 39/45/119 38/44/120
f 35/41/121 36/42/122 40/46/123 39/45/124
f 36/42/125 33/39/126 37/43/127 40/46/128
f 17/23/129 18/24/130 42/48/131 41/47/132
f 18/24/133 19/25/134 43/49/135 42/48/136
f 19/25/137 20/26/138 44/50/139 43/49/140
f 20/26/141 17/23/142 41/47/143 44/50/144
f 41/47/145 42/48/146 46/52/147 45/51/148
f 42/48/149 43/49/150 47/53/151 46/52/152
f 43/49/153 44/50/154 48/54/155 47/53/156
f 44/50/157 41/47/158 45/51/159 48/54/160
f 3/3/161 4/4/162 50/56/163 49/55/164
f 4/4/165 6/6/166 51/57/167 50/56/168
f 6/6/169 5/5/170 52/58/171 51/57/172
f 5/5/173 3/3/174 49/55/175 52/58/176
f 49/55/177 50/56/178 54/60/179 53/59/180
f 50/56/181 51/57/182 55/61/183 54/60/184
f 51/57/185 52/58/186 56/62/187 55/61/188
f 52/58/189 49/55/190 53/59/191 56/62/192
s 4
f 53/59/193 54/60/194 58/64/195 57/63/196
s 5
f 54/60/197 55/61/198 59/65/199 58/64/200
s 6
f 55/61/201 56/62/202 60/66/203 59/65/204
s 7
f 66/71/205 65/72/206 67/73/207 68/74/208
s 4
f 57/63/196 58/64/195 62/68/209 61/67/210
s 5
f 58/64/200 59/65/199 63/69/211 62/68/212
s 6
f 59/65/204 60/66/203 64/70/213 63/69/214
s 7
f 68/74/208 67/73/207 69/75/215 70/76/216
s off
f 56/62/217 53/59/218 65/72/219 66/71/220
f 53/59/221 57/63/222 67/73/223 65/72/224
f 60/66/225 56/62/226 66/71/227 68/74/228
f 57/63/229 61/67/230 69/75/231 67/73/232
f 61/67/233 64/70/234 70/76/235 69/75/236
f 64/70/237 60/66/238 68/74/239 70/76/240
